<svg width="62.000000" height="62.000000" viewBox="0 0 62 62" fill="none" xmlns="http://www.w3.org/2000/svg" xmlns:xlink="http://www.w3.org/1999/xlink">
	<desc>
			Created with Pixso.
	</desc>
	<defs/>
	<path id="Vector" d="M58.89 27.27L56.66 24.6C55.67 23.42 55.19 21.9 55.33 20.37L55.64 16.87C55.89 13.99 54 11.37 51.19 10.7L48.37 10.03C46.8 9.66 45.45 8.64 44.66 7.23L43.18 4.62C41.71 2 38.48 0.94 35.74 2.17L33.38 3.23C31.86 3.91 30.13 3.91 28.61 3.23L26.25 2.17C23.51 0.94 20.28 2 18.8 4.61L17.34 7.2C16.54 8.61 15.19 9.62 13.61 10L10.81 10.65C8 11.31 6.1 13.94 6.35 16.82L6.66 20.34C6.8 21.87 6.32 23.39 5.34 24.57L3.09 27.27C1.3 29.43 1.3 32.56 3.1 34.71L5.33 37.39C6.32 38.57 6.8 40.09 6.66 41.62L6.35 45.16C6.1 48.03 7.99 50.65 10.8 51.32L13.62 51.99C15.19 52.36 16.54 53.38 17.33 54.78L18.8 57.37C20.28 59.99 23.51 61.04 26.25 59.8L28.6 58.74C30.12 58.05 31.87 58.05 33.39 58.73L35.74 59.79C38.48 61.02 41.71 59.97 43.19 57.35L44.66 54.75C45.45 53.35 46.8 52.33 48.37 51.96L51.19 51.29C54 50.62 55.89 48 55.64 45.12L55.33 41.62C55.19 40.09 55.67 38.57 56.66 37.39L58.89 34.72C60.69 32.56 60.69 29.43 58.89 27.27Z" fill="#F0D288" fill-opacity="1.000000" fill-rule="nonzero"/>
	<path id="new" d="M31.9 25.17L30.54 26.27L39.87 30.72L37.95 23.9L44.22 27.2L41.84 17.12L40.48 18.22L42.11 24.53L35.77 21.17L37.71 28.09L31.9 25.17ZM20.9 45.29L15.42 38.52L16.64 37.53L17.27 38.31Q17.27 37.65 17.5 37.08Q17.8 36.32 18.53 35.73Q19.48 34.96 20.45 34.92Q20.87 34.91 21.3 35.03Q22.17 35.27 23.17 36.51L26.57 40.7L25.35 41.69L21.98 37.53Q21.31 36.7 20.65 36.55Q20.46 36.51 20.26 36.51Q19.68 36.53 19.1 36.99Q18.58 37.42 18.39 37.96L18.39 37.96Q18.3 38.22 18.29 38.52Q18.24 39.5 19.26 40.76L22.13 44.3L20.9 45.29ZM32.26 32.34L33.72 32.05C33.83 32.68 33.84 33.28 33.74 33.85C33.54 34.92 32.99 35.83 32.07 36.58Q31.22 37.27 30.25 37.53Q29.6 37.7 28.9 37.69Q28.64 37.68 28.4 37.63Q26.94 37.36 25.72 35.85Q24.79 34.7 24.61 33.44Q24.54 33 24.56 32.54Q24.6 31.96 24.78 31.44Q25.17 30.35 26.23 29.5Q27.4 28.54 28.64 28.45Q29.26 28.41 29.89 28.58C30.9 28.85 31.81 29.52 32.62 30.59L27.14 35.03C27.71 35.7 28.37 36.08 29.15 36.16Q29.67 36.21 30.14 36.08Q30.73 35.93 31.24 35.52Q31.77 35.09 32.05 34.53Q32.21 34.22 32.29 33.86C32.39 33.34 32.39 32.83 32.26 32.34ZM26.43 33.98L30.57 30.63C30.04 30.18 29.45 29.95 28.81 29.94Q28.42 29.93 28.07 30.02Q27.54 30.16 27.07 30.54Q26.73 30.82 26.5 31.18Q26.23 31.61 26.12 32.15C26 32.78 26.11 33.39 26.43 33.98Z" fill="#292E39" fill-opacity="1.000000" fill-rule="evenodd"/>
</svg>
